<?xml version="1.0" standalone="no"?>
<!DOCTYPE svg PUBLIC "-//W3C//DTD SVG 20010904//EN"
 "http://www.w3.org/TR/2001/REC-SVG-20010904/DTD/svg10.dtd">
<svg version="1.0" xmlns="http://www.w3.org/2000/svg"
 width="512.000000pt" height="512.000000pt" viewBox="0 0 512.000000 512.000000"
 preserveAspectRatio="xMidYMid meet">
<metadata>
Created by potrace 1.11, written by Peter Selinger 2001-2013
</metadata>
<g transform="translate(0.000000,512.000000) scale(0.100000,-0.100000)"
fill="#000000" stroke="none">
<path d="M2378 5115 c-2 -1 -34 -5 -73 -8 -379 -33 -803 -183 -1140 -405 -163
-107 -258 -184 -401 -326 -420 -418 -658 -898 -746 -1506 -13 -94 -17 -443 -6
-560 74 -777 511 -1485 1180 -1913 286 -183 637 -316 963 -366 39 -6 86 -13
105 -16 61 -11 472 -14 550 -5 178 21 258 36 410 76 148 39 264 80 376 135 33
16 63 29 67 29 13 0 243 134 325 189 292 196 581 499 760 798 34 55 76 130 93
166 l32 65 59 4 c83 6 106 31 113 121 3 41 1 67 -5 68 -6 1 -23 2 -39 3 -16 0
-32 3 -35 6 -3 3 6 37 20 75 38 108 84 296 100 405 2 19 6 44 9 55 19 94 27
459 13 605 -15 147 -44 304 -79 424 -12 38 -22 76 -24 85 -15 69 -110 296
-181 431 -286 542 -768 973 -1340 1195 -182 71 -403 129 -573 150 -30 4 -63 9
-75 12 -23 5 -452 13 -458 8z"/>
</g>
</svg>
